<mxfile host="app.diagrams.net" modified="2023-12-27T15:14:19.788Z" agent="Mozilla/5.0 (Windows NT 10.0; Win64; x64) AppleWebKit/537.36 (KHTML, like Gecko) Chrome/120.0.0.0 Safari/537.36" version="22.1.13" etag="P1gItZGV16feGSDm_mgZ" type="github">
  <diagram name="PÃ¡gina-1" id="54eMpS_5t0hSGl5AXaxp">
    <mxGraphModel>
      <root>
        <mxCell id="0" />
        <mxCell id="1" parent="0" />
      </root>
    </mxGraphModel>
  </diagram>
</mxfile>
